<?xml version="1.0" encoding="UTF-8"?>
<svg version="1.1" xmlns="http://www.w3.org/2000/svg" width="500" height="500">
<path d="M0 0 C1.65804882 0.00056958 1.65804882 0.00056958 3.34959358 0.00115067 C4.61954062 -0.00084038 5.88948766 -0.00283143 7.19791794 -0.00488281 C8.62558715 -0.00202922 10.05325617 0.00091639 11.48092502 0.00394398 C12.9832156 0.00350841 14.4855061 0.00263377 15.98779619 0.00135481 C20.13571931 -0.00089295 24.28361687 0.00313496 28.43153673 0.00813287 C32.89713689 0.01243318 37.36273549 0.01099125 41.82833713 0.0102306 C49.5718512 0.0097051 57.31535687 0.01285464 65.05886883 0.01846844 C76.25482202 0.02657989 87.45077114 0.02919829 98.64672696 0.03045643 C116.80943375 0.03264751 134.97213607 0.03930911 153.13484043 0.04875904 C170.78295218 0.05793171 188.43106272 0.06500179 206.07917637 0.06926686 C207.17727947 0.06953485 208.27538257 0.06980285 209.40676153 0.07007897 C217.99407093 0.07215827 226.58138035 0.07411524 235.16868979 0.07603353 C277.29307159 0.08547494 319.41744218 0.10559141 361.54182285 0.1241985 C361.54182285 88.2341985 361.54182285 176.3441985 361.54182285 267.1241985 C351.97182285 267.1241985 342.40182285 267.1241985 332.54182285 267.1241985 C332.54182285 188.5841985 332.54182285 110.0441985 332.54182285 29.1241985 C231.23182285 29.1241985 129.92182285 29.1241985 25.54182285 29.1241985 C26.03682285 69.7141985 26.03682285 69.7141985 26.54182285 111.1241985 C26.55449652 133.15217307 26.56307639 155.17745034 26.46235698 177.20479923 C26.42183228 186.41552718 26.38932733 195.62627411 26.35806172 204.83703749 C26.30704797 219.81022003 26.25048717 234.78337558 26.19001621 249.75652272 C26.13156891 264.23177267 26.07601164 278.7070294 26.02400059 293.18230397 C26.01907233 294.55247919 26.01907233 294.55247919 26.01404452 295.95033473 C25.98834046 303.10263453 25.96279489 310.2549349 25.93729907 317.40723544 C25.81401902 351.97959241 25.67701721 386.55188209 25.54182285 421.1241985 C94.84182285 421.1241985 164.14182285 421.1241985 235.54182285 421.1241985 C235.54182285 430.6941985 235.54182285 440.2641985 235.54182285 450.1241985 C205.23905282 450.14678334 174.93628434 450.16469646 144.63350785 450.17526383 C141.05973328 450.1765146 137.48595873 450.17780892 133.91218418 450.17913014 C133.20068017 450.17939245 132.48917617 450.17965476 131.75611144 450.17992502 C120.22050117 450.1842818 108.68489586 450.19216939 97.14928854 450.20135129 C85.32144423 450.21068761 73.49360252 450.21625406 61.66575468 450.21828699 C55.01855974 450.21953855 48.37137406 450.22268324 41.72418255 450.22992855 C35.47560883 450.2366846 29.2270511 450.23881631 22.97847408 450.23730618 C20.67777397 450.23758269 18.37707335 450.23959027 16.07637638 450.24340397 C12.9500568 450.24833473 9.82379858 450.24719908 6.69747776 450.24445301 C5.31277848 450.24882228 5.31277848 450.24882228 3.90010548 450.25327981 C-2.34405594 450.23831971 -2.34405594 450.23831971 -3.45817715 449.1241985 C-3.55783865 446.74245409 -3.59180974 444.38967063 -3.58401829 442.00736195 C-3.58547173 441.25011629 -3.58692517 440.49287063 -3.58842266 439.71267813 C-3.59210919 437.14271941 -3.58858405 434.57281902 -3.58516079 432.00286061 C-3.58631156 430.15479937 -3.58789879 428.30673836 -3.58988804 426.45867783 C-3.59408739 421.35495658 -3.59198795 416.25125387 -3.58890182 411.14753252 C-3.58665039 405.65327248 -3.59012604 400.15901575 -3.59288174 394.66475636 C-3.5973412 383.89147471 -3.59636219 373.1182 -3.5934691 362.34491807 C-3.59121575 353.59351837 -3.59090224 344.84212062 -3.59199291 336.09072071 C-3.59214615 334.84778309 -3.59229938 333.60484547 -3.59245726 332.32424307 C-3.59277696 329.79967433 -3.59310118 327.2751056 -3.59342985 324.75053686 C-3.59620367 301.72346719 -3.59332133 278.69640082 -3.58808725 255.66933195 C-3.58334133 234.62987137 -3.58376595 213.59041684 -3.58854824 192.55095631 C-3.59389809 168.93543042 -3.59601046 145.31990719 -3.59293598 121.70438057 C-3.59261741 119.18881247 -3.59230304 116.67324438 -3.59199291 114.15767628 C-3.59183864 112.91979058 -3.59168436 111.68190488 -3.59152541 110.40650749 C-3.59065999 101.66004975 -3.59212367 92.91359414 -3.59447247 84.16713673 C-3.5972697 73.51612848 -3.59653384 62.86512761 -3.59119172 52.21412021 C-3.58855366 46.77411944 -3.5875514 41.33413099 -3.59084088 35.89413029 C-3.59380171 30.92263969 -3.59221462 25.95117294 -3.58686332 20.97968453 C-3.58573822 19.17284475 -3.58633235 17.36600299 -3.58873911 15.55916446 C-3.59174138 13.11975858 -3.58870042 10.68043641 -3.58401829 8.24103504 C-3.58635946 7.52520115 -3.58870062 6.80936725 -3.59111273 6.07184142 C-3.56821535 0.18028277 -3.56821535 0.18028277 0 0 Z " fill="#000000" transform="translate(5.458177149295807,4.875801503658295)"/>
<path d="M0 0 C3.95061816 3.33322895 7.81475168 6.68955919 11.46655273 10.35302734 C12.2668541 11.15340424 13.06715546 11.95378113 13.89170837 12.77841187 C14.73053055 13.62239532 15.56935272 14.46637878 16.43359375 15.3359375 C17.31153091 16.21528961 18.18946808 17.09464172 19.0940094 18.00064087 C21.87754412 20.78974058 24.65756769 23.58231018 27.4375 26.375 C29.33216665 28.2752542 31.2275963 30.17474653 33.12304688 32.07421875 C37.75135161 36.71350604 42.37678421 41.35564167 47 46 C45.41579204 49.84319958 42.97517218 52.27124231 40.05197144 55.1885376 C39.54390209 55.69831579 39.03583275 56.20809398 38.51236737 56.73332 C36.80967375 58.43930637 35.09993321 60.13804872 33.39013672 61.83691406 C32.16775282 63.05873381 30.94580917 64.28099415 29.72427368 65.50366211 C26.40664767 68.82186245 23.0828869 72.13385587 19.75800467 75.44478321 C16.28441009 78.90588382 12.81647027 82.3726408 9.34793091 85.83880615 C2.77879315 92.40172523 -3.79542668 98.95952896 -10.37147987 105.51551795 C-17.85778996 112.97948115 -25.33842865 120.44911734 -32.81859231 127.91923952 C-48.20608502 143.28582144 -63.60069914 158.64525199 -79 174 C-82.05775179 172.63415283 -84.15881191 171.08911635 -86.51812744 168.72238159 C-87.53607391 167.70855911 -87.53607391 167.70855911 -88.57458496 166.67425537 C-89.30826294 165.93338684 -90.04194092 165.19251831 -90.79785156 164.42919922 C-91.57872131 163.64862152 -92.35959106 162.86804382 -93.16412354 162.06381226 C-95.74439273 159.48214955 -98.31750522 156.89347442 -100.890625 154.3046875 C-102.67809165 152.51349081 -104.46600032 150.72273512 -106.2543335 148.93240356 C-110.47948631 144.70039428 -114.7001546 140.46396242 -118.91868377 136.22535431 C-123.72246886 131.39920285 -128.53194442 126.57873937 -133.34190416 121.75874305 C-143.23427667 111.84547392 -153.11948887 101.92509034 -163 92 C-161.35296864 88.51066423 -159.48320216 86.24044101 -156.73388672 83.50683594 C-155.85312469 82.62622498 -154.97236267 81.74561401 -154.06491089 80.83831787 C-153.10327649 79.88689569 -152.1415328 78.93558397 -151.1796875 77.984375 C-150.19561893 77.00403871 -149.21199258 76.02325832 -148.22879028 75.04205322 C-145.64557286 72.46645533 -143.05640488 69.89692143 -140.46594238 67.32861328 C-137.8213238 64.70448933 -135.1823899 62.07466229 -132.54296875 59.4453125 C-127.36751928 54.2912833 -122.18576878 49.14364843 -117 44 C-112.09526099 48.11329871 -107.4780472 52.38542461 -102.97265625 56.9296875 C-102.33887558 57.56488312 -101.70509491 58.20007874 -101.05210876 58.85452271 C-99.05318594 60.85898716 -97.05779216 62.86692214 -95.0625 64.875 C-93.69749867 66.24502389 -92.3322664 67.61481774 -90.96679688 68.984375 C-87.64185789 72.32026543 -84.32007647 75.65927036 -81 79 C-77.99976052 77.65323083 -75.91279995 76.16088099 -73.59576416 73.83627319 C-72.94237564 73.185634 -72.28898712 72.53499481 -71.61579895 71.86463928 C-70.91017319 71.15182297 -70.20454742 70.43900665 -69.47753906 69.70458984 C-68.72593002 68.95327286 -67.97432098 68.20195587 -67.19993591 67.4278717 C-64.71706229 64.94360487 -62.2413477 62.45232905 -59.765625 59.9609375 C-58.04541916 58.23700151 -56.3247712 56.51350659 -54.60369873 54.79043579 C-50.07505668 50.25415749 -45.55245285 45.71190506 -41.03106689 41.168396 C-36.41625986 36.53313047 -31.79578604 31.90352137 -27.17578125 27.2734375 C-18.11162268 18.18782914 -9.0536372 9.09609212 0 0 Z M0 41 C-26.07 67.07 -52.14 93.14 -79 120 C-82.37360397 118.31319802 -83.94737745 117.29918119 -86.48339844 114.74365234 C-87.14378113 114.08311859 -87.80416382 113.42258484 -88.48455811 112.74203491 C-89.18574768 112.03052277 -89.88693726 111.31901062 -90.609375 110.5859375 C-91.69958954 109.49147812 -91.69958954 109.49147812 -92.81182861 108.37490845 C-95.12929198 106.0462612 -97.4396995 103.71075174 -99.75 101.375 C-101.32115444 99.79381347 -102.89276371 98.21307875 -104.46484375 96.6328125 C-108.31518653 92.7604331 -112.15976117 88.88239829 -116 85 C-118.97 87.475 -118.97 87.475 -122 90 C-120.55419034 93.31613882 -118.75170208 95.49185728 -116.19287109 98.03417969 C-115.41221283 98.81468689 -114.63155457 99.59519409 -113.82723999 100.39935303 C-112.98448517 101.23178528 -112.14173035 102.06421753 -111.2734375 102.921875 C-110.41062164 103.78186096 -109.54780579 104.64184692 -108.65884399 105.52789307 C-105.90221971 108.2733231 -103.13872201 111.0117169 -100.375 113.75 C-98.50475143 115.61021783 -96.63495411 117.47088946 -94.765625 119.33203125 C-90.1823064 123.89329945 -85.59332522 128.44881011 -81 133 C-77.88534154 131.61565262 -75.76901869 130.01680359 -73.36798096 127.60848999 C-72.66410751 126.90736588 -71.96023407 126.20624176 -71.23503113 125.48387146 C-70.47330093 124.71495071 -69.71157074 123.94602997 -68.92675781 123.15380859 C-68.11662735 122.34397018 -67.30649689 121.53413177 -66.47181702 120.69975281 C-63.79415215 118.02069416 -61.12364184 115.33461989 -58.453125 112.6484375 C-56.59839755 110.7899801 -54.74322816 108.93196365 -52.88763428 107.07437134 C-48.50279039 102.68331439 -44.12306917 98.28718468 -39.74516845 93.88920653 C-34.7600072 88.8816809 -29.76915727 83.87984156 -24.77782297 78.87847018 C-14.51221028 68.59195943 -4.25375452 58.29833103 6 48 C4.46126823 44.28139821 3.52488612 43.64366459 0 41 Z " fill="#000000" transform="translate(450,281)"/>
<path d="M0 0 C-1.58713757 5.5193155 -4.12240344 10.30887332 -6.875 15.3125 C-7.30941406 16.13556641 -7.74382812 16.95863281 -8.19140625 17.80664062 C-8.62066406 18.58845703 -9.04992187 19.37027344 -9.4921875 20.17578125 C-9.87745605 20.88645752 -10.26272461 21.59713379 -10.65966797 22.3293457 C-12 24 -12 24 -13.99682617 24.79467773 C-16.94219758 25.09657382 -18.77955141 24.00504221 -21.4375 22.75 C-39.36825863 14.97567349 -58.21293735 14.93420799 -76.66015625 21.25390625 C-84.66334917 24.44995827 -91.30715328 28.60854014 -98 34 C-98.64453125 34.48082031 -99.2890625 34.96164062 -99.953125 35.45703125 C-113.40298658 45.96852217 -121.76681268 64.31526716 -124 81 C-125.97751101 102.28096099 -120.84592986 122.03509001 -107.625 139 C-96.06220038 152.20333359 -78.19229678 163.65840541 -60.19140625 164.94140625 C-59.46824219 164.96074219 -58.74507813 164.98007812 -58 165 C-56.91589844 165.05027344 -55.83179688 165.10054687 -54.71484375 165.15234375 C-33.81551188 165.6926574 -15.81520647 159.50375322 0 146 C0.65226563 145.45988281 1.30453125 144.91976562 1.9765625 144.36328125 C13.34408185 134.05984476 19.83108253 118.69225374 23 104 C29.62613779 104.64036937 36.04712709 105.70971164 42.5625 107.0625 C43.47580078 107.24876953 44.38910156 107.43503906 45.33007812 107.62695312 C47.55414045 108.08108103 49.77739276 108.538813 52 109 C49.26472809 129.33017956 39.59830271 146.88020888 26 162 C25.30390625 162.77859375 24.6078125 163.5571875 23.890625 164.359375 C5.93401884 183.3645421 -20.23457325 193.77354359 -46.04296875 195.2890625 C-75.89628834 195.94781178 -102.315936 185.26215817 -124 165 C-142.78981533 146.73577391 -153.74983157 120.67660217 -154.29296875 94.5793457 C-154.49938509 65.33789081 -145.04314326 38.9913672 -124.7578125 17.625 C-91.51878809 -14.0132782 -40.50210705 -24.07249751 0 0 Z " fill="#000000" transform="translate(403,300)"/>
<path d="M0 0 C32.97804657 -0.02258451 65.95609017 -0.04049778 98.93414268 -0.05106533 C102.82336401 -0.05231611 106.71258533 -0.05361042 110.60180664 -0.05493164 C111.37611356 -0.05519395 112.15042047 -0.05545626 112.94819123 -0.05572652 C125.5022792 -0.06008339 138.05636261 -0.06797102 150.61044788 -0.0771528 C163.48242367 -0.08648888 176.35439707 -0.09205551 189.22637612 -0.09408849 C197.17552393 -0.09546382 205.12465887 -0.09981491 213.07380272 -0.10791647 C219.15884397 -0.11380403 225.24387403 -0.11445908 231.32891846 -0.11310768 C233.83280072 -0.11338421 236.33668344 -0.11539201 238.84056282 -0.11920547 C242.2427616 -0.12413565 245.64490397 -0.1230008 249.04710388 -0.12025452 C250.05194665 -0.12316736 251.05678942 -0.1260802 252.09208196 -0.12908131 C252.99627247 -0.12709026 253.90046297 -0.12509921 254.83205318 -0.12304783 C255.61845399 -0.12342755 256.40485479 -0.12380727 257.21508592 -0.1241985 C259 0 259 0 260 1 C260.09983058 2.98757028 260.13080753 4.9786752 260.1328125 6.96875 C260.13410156 8.17917969 260.13539063 9.38960938 260.13671875 10.63671875 C260.13285156 11.91160156 260.12898438 13.18648438 260.125 14.5 C260.12886719 15.77488281 260.13273437 17.04976563 260.13671875 18.36328125 C260.13478516 20.17892578 260.13478516 20.17892578 260.1328125 22.03125 C260.13168457 23.15080078 260.13055664 24.27035156 260.12939453 25.42382812 C260 28 260 28 259 29 C257.6134317 29.09648067 256.22197394 29.12371896 254.83205318 29.12304783 C253.92786268 29.12503888 253.02367218 29.12702993 252.09208196 29.12908131 C250.58481781 29.12471205 250.58481781 29.12471205 249.04710388 29.12025452 C247.45936215 29.12153615 247.45936215 29.12153615 245.83954483 29.12284368 C242.26337444 29.12450164 238.68725011 29.11897198 235.11108398 29.11352539 C232.5592448 29.11324356 230.00740554 29.11340117 227.45556641 29.1139679 C221.94654686 29.11419622 216.43754237 29.1113447 210.92852592 29.10573006 C202.96332697 29.0976174 194.99813374 29.09500008 187.0329311 29.09374207 C174.11122491 29.09155118 161.18952503 29.08489009 148.26782227 29.07543945 C135.71248405 29.06626629 123.15714753 29.05918499 110.60180664 29.05493164 C109.82843751 29.05466892 109.05506838 29.05440619 108.25826382 29.05413551 C104.37866001 29.05283051 100.49905619 29.05156679 96.61945236 29.05032361 C64.41296347 29.03994984 32.20648306 29.02205612 0 29 C0 19.43 0 9.86 0 0 Z " fill="#000000" transform="translate(55,257)"/>
<path d="M0 0 C12.65861076 10.92829706 19.64755879 24.26787232 22.25 40.75 C22.25 48.34 22.25 55.93 22.25 63.75 C-20.32 63.75 -62.89 63.75 -106.75 63.75 C-106.75 40.63059222 -104.92924222 21.21889135 -88.4375 4 C-63.84604354 -19.22296057 -26.73782414 -20.82465149 0 0 Z M-69.64453125 26.9140625 C-72.68165049 30.45117313 -72.68165049 30.45117313 -73.75 34.75 C-52.63 34.75 -31.51 34.75 -9.75 34.75 C-14.56060911 25.12878177 -19.7513354 20.08277692 -29.71875 15.9296875 C-44.53728368 11.47156932 -59.53336203 15.36439704 -69.64453125 26.9140625 Z " fill="#000000" transform="translate(156.75,177.25)"/>
<path d="M0 0 C61.38 0 122.76 0 186 0 C186 9.57 186 19.14 186 29 C124.62 29 63.24 29 0 29 C0 19.43 0 9.86 0 0 Z " fill="#000000" transform="translate(55,303)"/>
<path d="M0 0 C9.55468208 7.08531323 16.01701789 16.63016649 18.0625 28.51953125 C19.45139944 40.71580447 16.74093075 51.63160635 9.23046875 61.49609375 C2.13758617 69.70130211 -6.63802304 75.69545171 -17.66625977 76.93774414 C-31.55770431 77.70865854 -43.01991882 75.25021067 -53.6875 65.71484375 C-63.11410151 55.24626901 -66.64370455 44.66608476 -66.0703125 30.80859375 C-65.27091629 19.88853984 -59.77747845 10.25823561 -51.8125 2.90234375 C-36.72852535 -9.42097894 -16.32143097 -10.69786101 0 0 Z M-35.0625 27.33984375 C-37.13866134 31.65187114 -37.40031401 35.01200984 -36.6875 39.71484375 C-35.387044 42.86331618 -34.1360648 44.33224436 -31.5625 46.52734375 C-27.5167614 48.19840969 -24.00281033 48.39220287 -19.6875 47.71484375 C-14.76915118 45.34674988 -12.53322319 42.84185261 -10.6875 37.71484375 C-10.11899855 33.81654812 -10.48461215 32.10501269 -12.3125 28.58984375 C-15.60256299 24.60713592 -18.47621327 22.03732306 -23.6875 21.27734375 C-28.6958757 22.00773187 -31.66214693 23.58155878 -35.0625 27.33984375 Z " fill="#000000" transform="translate(138.6875,84.28515625)"/>
<path d="M0 0 C16.01993851 -0.02254717 32.03986354 -0.04097926 48.0598135 -0.05181217 C55.4976451 -0.05697509 62.93546617 -0.06401771 70.37329102 -0.07543945 C76.85381342 -0.08538641 83.33432819 -0.09185346 89.81485802 -0.09408849 C93.24830542 -0.09539558 96.681731 -0.0984813 100.11517143 -0.10573006 C103.94193821 -0.11374416 107.76868335 -0.11399113 111.59545898 -0.11352539 C112.74200455 -0.11712067 113.88855011 -0.12071594 115.06983948 -0.12442017 C116.6243129 -0.12235817 116.6243129 -0.12235817 118.21018982 -0.12025452 C119.11631232 -0.12117631 120.02243483 -0.1220981 120.95601559 -0.12304783 C123 0 123 0 124 1 C124.09983058 2.98757028 124.13080753 4.9786752 124.1328125 6.96875 C124.13410156 8.17917969 124.13539063 9.38960937 124.13671875 10.63671875 C124.13285156 11.91160156 124.12898438 13.18648437 124.125 14.5 C124.12886719 15.77488281 124.13273437 17.04976562 124.13671875 18.36328125 C124.13542969 19.57371094 124.13414062 20.78414062 124.1328125 22.03125 C124.13168457 23.15080078 124.13055664 24.27035156 124.12939453 25.42382812 C124 28 124 28 123 29 C121.40577964 29.09597204 119.8072955 29.12187924 118.21018982 29.12025452 C117.17387421 29.12162918 116.13755859 29.12300385 115.06983948 29.12442017 C113.92329391 29.12082489 112.77674835 29.11722961 111.59545898 29.11352539 C110.39562378 29.11367142 109.19578857 29.11381744 107.95959473 29.1139679 C104.66014809 29.11338894 101.36076336 29.10835978 98.0613277 29.10139394 C94.61665703 29.09515973 91.17198562 29.09455655 87.72731018 29.09336853 C81.2001727 29.09025541 74.67305189 29.08204229 68.14592177 29.07201904 C60.71677984 29.0608573 53.28763714 29.0553473 45.85848892 29.05032361 C30.57231464 29.03985966 15.28616333 29.02151442 0 29 C0 19.43 0 9.86 0 0 Z " fill="#000000" transform="translate(191,208)"/>
<path d="M0 0 C16.01993851 -0.02254717 32.03986354 -0.04097926 48.0598135 -0.05181217 C55.4976451 -0.05697509 62.93546617 -0.06401771 70.37329102 -0.07543945 C76.85381342 -0.08538641 83.33432819 -0.09185346 89.81485802 -0.09408849 C93.24830542 -0.09539558 96.681731 -0.0984813 100.11517143 -0.10573006 C103.94193821 -0.11374416 107.76868335 -0.11399113 111.59545898 -0.11352539 C112.74200455 -0.11712067 113.88855011 -0.12071594 115.06983948 -0.12442017 C116.6243129 -0.12235817 116.6243129 -0.12235817 118.21018982 -0.12025452 C119.11631232 -0.12117631 120.02243483 -0.1220981 120.95601559 -0.12304783 C123 0 123 0 124 1 C124.09983058 2.98757028 124.13080753 4.9786752 124.1328125 6.96875 C124.13410156 8.17917969 124.13539063 9.38960937 124.13671875 10.63671875 C124.13285156 11.91160156 124.12898438 13.18648437 124.125 14.5 C124.12886719 15.77488281 124.13273437 17.04976562 124.13671875 18.36328125 C124.13542969 19.57371094 124.13414062 20.78414062 124.1328125 22.03125 C124.13168457 23.15080078 124.13055664 24.27035156 124.12939453 25.42382812 C124 28 124 28 123 29 C121.40577964 29.09597204 119.8072955 29.12187924 118.21018982 29.12025452 C117.17387421 29.12162918 116.13755859 29.12300385 115.06983948 29.12442017 C113.92329391 29.12082489 112.77674835 29.11722961 111.59545898 29.11352539 C110.39562378 29.11367142 109.19578857 29.11381744 107.95959473 29.1139679 C104.66014809 29.11338894 101.36076336 29.10835978 98.0613277 29.10139394 C94.61665703 29.09515973 91.17198562 29.09455655 87.72731018 29.09336853 C81.2001727 29.09025541 74.67305189 29.08204229 68.14592177 29.07201904 C60.71677984 29.0608573 53.28763714 29.0553473 45.85848892 29.05032361 C30.57231464 29.03985966 15.28616333 29.02151442 0 29 C0 19.43 0 9.86 0 0 Z " fill="#000000" transform="translate(191,164)"/>
<path d="M0 0 C27.72 0 55.44 0 84 0 C84 9.57 84 19.14 84 29 C56.28 29 28.56 29 0 29 C0 19.43 0 9.86 0 0 Z " fill="#000000" transform="translate(191,120)"/>
<path d="" fill="#FFFFFF" transform="translate(0,0)"/>
<path d="" fill="#FFFFFF" transform="translate(0,0)"/>
<path d="" fill="#FFFFFF" transform="translate(0,0)"/>
<path d="" fill="#FFFFFF" transform="translate(0,0)"/>
<path d="" fill="#FFFFFF" transform="translate(0,0)"/>
<path d="" fill="#FFFFFF" transform="translate(0,0)"/>
<path d="" fill="#FFFFFF" transform="translate(0,0)"/>
<path d="" fill="#FFFFFF" transform="translate(0,0)"/>
<path d="" fill="#FFFFFF" transform="translate(0,0)"/>
<path d="" fill="#FFFFFF" transform="translate(0,0)"/>
<path d="" fill="#FFFFFF" transform="translate(0,0)"/>
<path d="" fill="#FFFFFF" transform="translate(0,0)"/>
<path d="" fill="#FFFFFF" transform="translate(0,0)"/>
<path d="" fill="#FFFFFF" transform="translate(0,0)"/>
<path d="" fill="#FFFFFF" transform="translate(0,0)"/>
<path d="" fill="#FFFFFF" transform="translate(0,0)"/>
<path d="" fill="#FFFFFF" transform="translate(0,0)"/>
<path d="" fill="#FFFFFF" transform="translate(0,0)"/>
<path d="" fill="#FFFFFF" transform="translate(0,0)"/>
<path d="" fill="#FFFFFF" transform="translate(0,0)"/>
<path d="" fill="#FFFFFF" transform="translate(0,0)"/>
<path d="" fill="#FFFFFF" transform="translate(0,0)"/>
<path d="" fill="#FFFFFF" transform="translate(0,0)"/>
<path d="" fill="#FFFFFF" transform="translate(0,0)"/>
<path d="" fill="#FFFFFF" transform="translate(0,0)"/>
<path d="" fill="#FFFFFF" transform="translate(0,0)"/>
<path d="" fill="#FFFFFF" transform="translate(0,0)"/>
<path d="" fill="#FFFFFF" transform="translate(0,0)"/>
<path d="" fill="#FFFFFF" transform="translate(0,0)"/>
<path d="" fill="#FFFFFF" transform="translate(0,0)"/>
<path d="" fill="#FFFFFF" transform="translate(0,0)"/>
<path d="" fill="#FFFFFF" transform="translate(0,0)"/>
<path d="" fill="#FFFFFF" transform="translate(0,0)"/>
<path d="" fill="#FFFFFF" transform="translate(0,0)"/>
<path d="" fill="#FFFFFF" transform="translate(0,0)"/>
<path d="" fill="#FFFFFF" transform="translate(0,0)"/>
<path d="" fill="#FFFFFF" transform="translate(0,0)"/>
<path d="" fill="#FFFFFF" transform="translate(0,0)"/>
</svg>
